<?xml version="1.0" encoding="UTF-8"?>
<svg id="ARTBOARD_2" data-name="ARTBOARD 2" xmlns="http://www.w3.org/2000/svg" viewBox="0 0 137.01 201.86">
  <defs>
    <style>
      .cls-1 {
        fill: #2e3192;
      }
    </style>
  </defs>
  <path class="cls-1" d="m118.36,16.47C105.92,5.49,89.22,0,68.23,0S32.08,5.43,19.83,16.28C7.58,27.14.97,40.33,0,55.86l33.66,4.19c2.3-10.92,6.58-19.01,12.83-24.29,6.24-5.28,14.04-7.91,23.38-7.91s17.22,2.55,22.93,7.64c5.7,5.09,8.55,11.16,8.55,18.2,0,5.22-1.64,9.95-4.91,14.19-2.06,2.67-8.43,8.34-19.11,17.01-10.68,8.67-17.8,16.5-21.38,23.47-3.58,6.98-5.37,15.8-5.37,26.47,0,1.09.06,4,.18,8.73h33.3c-.24-10.07.57-17.04,2.46-20.92,1.88-3.88,6.7-9.03,14.47-15.47,14.92-12.49,24.65-22.32,29.2-29.48,4.55-7.16,6.82-14.8,6.82-22.93,0-14.56-6.22-27.32-18.65-38.3Z"/>
  <path class="cls-1" d="m88.76,180.44c0,11.83-9.59,21.41-21.41,21.41s-21.41-9.59-21.41-21.41,9.59-21.41,21.41-21.41,21.41,9.59,21.41,21.41Z"/>
</svg>